<?xml version="1.0"?>
<svg xmlns="http://www.w3.org/2000/svg" version="1" viewBox="0 0 26 26" enable-background="new 0 0 26 26">
    <path d="M23,15c-0.4,0-0.8,0.1-1.1,0.3c0,0,0,0,0,0c-1.2,0.5-2.3-0.4-3.1-1c0.1-0.4,0.2-0.9,0.2-1.4c0-0.2,0-0.3,0-0.5 c0,0,0,0,0-0.1c0.1-0.4,1.7-0.8,3.1-0.5c0,0,0,0,0,0c0.1,0,0.2,0,0.4,0c0.8,0,1.5-0.7,1.5-1.5S23.3,9,22.5,9c-0.6,0-1.1,0.3-1.3,0.8 c-0.6,0.9-1.9,1.1-2.7,0.7c-0.3-0.7-0.8-1.4-1.4-1.9C17.2,8.3,17.3,8,17.8,8c0,0,0,0,0.1,0c0,0,0.1,0,0.1,0c1.1,0,2-0.9,2-2 c0-1.1-0.9-2-2-2s-2,0.9-2,2c0,0.2,0,0.4,0.1,0.6c0,0,0,0,0,0c0,0,0.4,1-0.5,0.9c0,0-0.1,0-0.1,0c-0.5-0.2-1-0.4-1.6-0.5 c-1.2-2.1,0.3-3.5,0.3-3.5s0,0,0,0C14.7,3.2,15,2.6,15,2c0-1.1-0.9-2-2-2s-2,0.9-2,2c0,0.3,0.1,0.6,0.2,0.9c0,0.1,0,0.1,0.1,0.2 c1.3,2.7,1.2,3.7,0.5,4c-0.6,0.1-1.3,0.4-1.8,0.7c0,0-0.1,0-0.1,0.1c-1.1,0.6-2.1-1.3-2-2.2c0,0,0-0.1,0-0.1C8,5.4,8,5.2,8,5 c0-1.1-0.9-2-2-2S4,3.9,4,5c0,0.9,0.6,1.6,1.3,1.9c0,0,0,0,0,0c1.2,0.5,2.9,2.1,2.5,3c0,0,0,0,0,0c0,0.1-0.1,0.1-0.1,0.2 c0,0,0,0.1,0,0.1c-0.9,1.8-3.4,0.9-4.1,0.3C3.4,10.2,3,10,2.5,10C1.7,10,1,10.7,1,11.5S1.7,13,2.5,13c0.3,0,0.6-0.1,0.8-0.2 c1.2-0.6,3.4-0.2,3.7,0.9c0,0,0,0.1,0,0.1c0.1,0.5,0.2,0.9,0.3,1.3c-0.6,0.6-1.8,0.5-2.3,0.3C4.8,15.1,4.4,15,4,15c-1.1,0-2,0.9-2,2 c0,1.1,0.9,2,2,2c0.7,0,1.2-0.3,1.6-0.8c0,0,0,0,0,0c0.6-0.9,1.6-1.7,2.5-1.7c0.2,0.3,0.5,0.6,0.7,0.9c1,1.9-1.5,2.7-1.5,2.7 c0,0,0,0,0,0C6.6,20.1,6,20.7,6,21.5C6,22.3,6.7,23,7.5,23S9,22.3,9,21.5c0.2-1.6,1-2.6,2.5-2.7c0.3,0.1,0.6,0.1,0.9,0.2 c1.6,2.5,0.4,2.8-0.3,3.3c-0.6,0.3-1,1-1,1.7c0,1.1,0.9,2,2,2s2-0.9,2-2c0-1.9-1.2-4.6-0.5-5.2c0,0,0,0,0,0c0.3-0.1,0.7-0.2,1-0.3 c1.1,0.2,0.5,1.1,0.5,2.6c0,1.1,0.9,2,2,2s2-0.9,2-2c0-1.1-0.9-2-2-2c-0.8,0-0.4-1.9-0.4-2.2c0,0,0,0,0,0c0.2-0.3,0.4-0.5,0.6-0.8 c1.4-0.5,3,1.9,3,1.9c0,0,0,0,0,0c0.3,0.7,1,1.1,1.8,1.1c1.1,0,2-0.9,2-2C25,15.9,24.1,15,23,15z M12,13c-1.1,0-2-0.9-2-2 c0-1.1,0.9-2,2-2s2,0.9,2,2C14,12.1,13.1,13,12,13z M11,16c-0.6,0-1-0.4-1-1c0-0.6,0.4-1,1-1s1,0.4,1,1C12,15.6,11.6,16,11,16z M14.5,17.1c-0.8,0-1.5-0.7-1.5-1.5s0.7-1.5,1.5-1.5s1.5,0.7,1.5,1.5S15.3,17.1,14.5,17.1z"/>
</svg>
