<?xml version="1.0" encoding="utf-8"?>
<!-- Generator: Adobe Illustrator 23.0.3, SVG Export Plug-In . SVG Version: 6.00 Build 0)  -->
<svg version="1.1" id="Layer_1" xmlns="http://www.w3.org/2000/svg" xmlns:xlink="http://www.w3.org/1999/xlink" x="0px" y="0px"
	 viewBox="0 0 28.3 28.3" style="enable-background:new 0 0 28.3 28.3;" xml:space="preserve">
<style type="text/css">
	.st0{fill:#F6F6F6;}
	.st1{fill:#010101;}
	.st2{fill:#F5F5F5;}
	.st3{fill:#020202;}
	.st4{fill:#FEFEFE;}
	.st5{fill:#F3F3F3;}
	.st6{fill:#FDFDFD;}
	.st7{fill:#FCFCFC;}
	.st8{fill:#FFFFFF;stroke:#000000;stroke-miterlimit:10;}
	.st9{fill:none;stroke:#000000;stroke-miterlimit:10;}
	.st10{fill:url(#SVGID_1_);}
	.st11{fill:url(#SVGID_2_);}
	.st12{fill:url(#SVGID_3_);}
	.st13{fill:url(#SVGID_4_);}
	.st14{fill:url(#SVGID_5_);}
	.st15{fill:url(#SVGID_6_);}
	.st16{fill:url(#SVGID_7_);}
	.st17{fill:url(#SVGID_8_);}
	.st18{fill:url(#SVGID_9_);}
	.st19{fill:url(#SVGID_10_);}
	.st20{fill:url(#SVGID_11_);}
	.st21{fill:url(#SVGID_12_);}
	.st22{fill:url(#SVGID_13_);}
	.st23{fill:#CA368D;}
	.st24{fill:#79226C;}
	.st25{fill:url(#SVGID_14_);}
	.st26{fill:url(#SVGID_15_);}
	.st27{fill:url(#SVGID_16_);}
	.st28{fill:url(#SVGID_17_);}
	.st29{fill:url(#SVGID_18_);}
	.st30{fill:url(#SVGID_19_);}
	.st31{fill:url(#SVGID_20_);}
	.st32{fill:url(#SVGID_21_);}
	.st33{fill:url(#SVGID_22_);}
	.st34{fill:url(#SVGID_23_);}
	.st35{fill:url(#SVGID_24_);}
	.st36{fill:url(#SVGID_25_);}
	.st37{opacity:0.8;}
	.st38{fill:#FFFFFF;}
</style>
<g>
	<path d="M11.9,17.8c0-0.3-0.2-0.5-0.5-0.3c-0.1,0.1-0.2,0.2-0.3,0.2c-0.3,0.3-0.5,0.6-0.8,0.8c-0.1,0.2-0.2,0.2-0.5,0.2
		c-0.3,0-0.6,0.1-0.8,0.3c-0.2,0.3,0,0.6,0.1,0.8c0.4,0.6,1,0.9,1.7,1c0.9,0,1.2-0.5,0.8-1.1c-0.2-0.3-0.1-0.5-0.1-0.7
		C11.6,18.7,11.8,18.3,11.9,17.8z M11.2,20.5c-0.1,0.1-0.2,0.1-0.3,0.1c-0.5-0.1-1-0.4-1.3-0.8c-0.1-0.1-0.2-0.2-0.1-0.3
		c0.1-0.2,0.3-0.2,0.4-0.1c0.3,0.1,0.5,0,0.7-0.3c0.2-0.2,0.4-0.4,0.6-0.6c0,0.3-0.1,0.5-0.2,0.8c-0.1,0.3-0.2,0.6,0.1,0.9
		C11.2,20.2,11.3,20.3,11.2,20.5z"/>
	<path d="M11.8,10.5c-0.1-0.4-0.2-0.7-0.4-1.1c-0.1-0.2-0.1-0.3,0.1-0.4c0.2-0.3,0.3-0.6,0.1-0.9c-0.1-0.3-0.4-0.3-0.7-0.3
		c-0.7,0-1.4,0.4-1.8,1C9,8.9,8.8,9.2,9,9.5c0.1,0.3,0.5,0.3,0.7,0.4c0.1,0,0.1,0,0.2,0c0.1-0.1,0.2,0,0.3,0.1c0.3,0.4,0.6,0.7,1,1
		c0.1,0.1,0.3,0.3,0.5,0.2c0.2-0.1,0.1-0.3,0.1-0.5C11.8,10.6,11.8,10.5,11.8,10.5z M11.2,10.3c-0.2-0.2-0.4-0.5-0.7-0.7
		c-0.2-0.2-0.4-0.4-0.7-0.2c-0.1,0.1-0.3,0-0.4-0.1C9.3,9.1,9.4,9,9.5,8.9c0.3-0.4,0.8-0.6,1.3-0.7c0.1,0,0.3-0.1,0.4,0.1
		c0.1,0.2,0,0.3-0.1,0.4c-0.2,0.2-0.2,0.4-0.2,0.6C11,9.6,11.1,10,11.2,10.3C11.2,10.3,11.2,10.3,11.2,10.3z"/>
	<path d="M9.9,14.3c0-0.3-0.3-0.4-0.5-0.4c-0.4-0.1-0.8-0.2-1.3-0.3c-0.1,0-0.2-0.1-0.3-0.2c-0.1-0.3-0.4-0.5-0.7-0.6
		c-0.3,0-0.4,0.2-0.6,0.4c-0.4,0.6-0.4,1.7,0,2.3C6.8,16,7.2,16,7.6,15.6c0.1-0.1,0.2-0.2,0.2-0.3c0-0.2,0.2-0.2,0.3-0.3
		c0.4-0.1,0.8-0.2,1.2-0.3C9.6,14.7,9.9,14.6,9.9,14.3z M8.8,14.4c-0.3,0.1-0.6,0.1-1,0.2c-0.2,0.1-0.4,0.2-0.5,0.4
		c0,0.2-0.1,0.3-0.3,0.3c-0.2,0-0.2-0.2-0.3-0.3c-0.1-0.5-0.2-1,0-1.5c0-0.1,0.1-0.3,0.3-0.3c0.2,0,0.3,0.1,0.3,0.3
		C7.4,14,7.7,14.1,8,14.1C8.3,14.2,8.6,14.2,8.8,14.4C8.8,14.3,8.8,14.4,8.8,14.4z"/>
	<path d="M15.2,10.9c0,0.3,0.2,0.5,0.5,0.3c0.1-0.1,0.2-0.2,0.3-0.2c0.3-0.3,0.5-0.6,0.8-0.8c0.1-0.2,0.3-0.2,0.5-0.2
		c0.3,0,0.6-0.1,0.8-0.4c0.2-0.3,0-0.6-0.1-0.8c-0.4-0.6-1-0.9-1.6-1c-0.9,0-1.2,0.5-0.8,1.1c0.2,0.3,0.1,0.5,0.1,0.8
		C15.4,10,15.2,10.4,15.2,10.9z M15.9,8.3c0.1-0.2,0.3-0.1,0.4-0.1c0.5,0.1,0.9,0.4,1.2,0.7c0.1,0.1,0.2,0.2,0.1,0.4
		c-0.1,0.1-0.2,0.2-0.4,0.1c-0.4-0.1-0.6,0.1-0.8,0.3c-0.2,0.2-0.4,0.4-0.5,0.6c0,0,0,0-0.1,0c0.1-0.3,0.2-0.6,0.3-0.9
		c0.1-0.2,0.1-0.4-0.1-0.6C15.9,8.6,15.8,8.4,15.9,8.3z"/>
	<path d="M14.5,15.9c-0.3-0.1-0.4-0.2-0.5-0.4c-0.3-0.5-0.6-0.5-0.9,0c-0.1,0.2-0.3,0.4-0.5,0.5C12.2,16,12,16.3,12,16.6
		c0,0.3,0.3,0.5,0.5,0.6c0.3,0.2,0.6,0.2,1,0.2c0.4,0,0.9-0.1,1.2-0.4c0.3-0.3,0.3-0.5,0.1-0.9C14.8,16.1,14.7,15.9,14.5,15.9z
		 M14.2,16.9c-0.5,0.2-1,0.2-1.5,0c-0.1,0-0.2-0.1-0.2-0.3c0-0.1,0.1-0.3,0.2-0.3c0.5-0.1,0.6-0.4,0.8-0.8c0.1,0.2,0.2,0.3,0.2,0.4
		c0.1,0.2,0.2,0.3,0.4,0.3c0.2,0,0.3,0.1,0.4,0.3C14.6,16.8,14.4,16.9,14.2,16.9z"/>
	<path d="M12.5,12.8c0.3,0.1,0.4,0.3,0.6,0.5c0.2,0.4,0.6,0.4,0.8,0c0.2-0.2,0.3-0.5,0.6-0.6c0.3-0.1,0.5-0.4,0.5-0.7
		c0-0.3-0.3-0.5-0.5-0.6c-0.3-0.2-0.6-0.2-0.8-0.2c-0.5,0-0.9,0.1-1.2,0.2c-0.3,0.1-0.5,0.3-0.5,0.6C12,12.4,12.2,12.6,12.5,12.8z
		 M12.8,11.8c0.5-0.2,1.1-0.2,1.6,0c0.1,0,0.2,0.1,0.2,0.2c0,0.1-0.1,0.3-0.2,0.3c-0.4,0.1-0.6,0.4-0.8,0.8
		c-0.2-0.4-0.3-0.8-0.8-0.8c-0.1,0-0.2-0.1-0.2-0.3C12.5,11.9,12.6,11.9,12.8,11.8z"/>
	<path d="M17.5,18.8c-0.1,0-0.2,0-0.2,0c-0.2,0.1-0.3,0-0.4-0.1c-0.3-0.3-0.6-0.7-0.9-1c-0.1-0.1-0.3-0.3-0.6-0.2
		c-0.2,0.1-0.1,0.4-0.1,0.6c0,0,0,0.1,0,0.1c0.1,0.4,0.2,0.8,0.3,1.1c0.1,0.2,0.1,0.3-0.1,0.5c-0.2,0.3-0.3,0.6-0.1,0.9
		c0.1,0.3,0.4,0.3,0.7,0.3c0.7,0,1.5-0.4,1.8-1C18.4,19.4,18.1,18.9,17.5,18.8z M17.5,19.8c-0.3,0.4-0.8,0.6-1.3,0.7
		c-0.1,0-0.3,0.1-0.4-0.1c-0.1-0.2,0-0.3,0.1-0.4c0.2-0.2,0.2-0.4,0.2-0.6c-0.1-0.3-0.2-0.7-0.3-1.1c0.3,0.3,0.5,0.6,0.8,0.8
		c0.2,0.2,0.4,0.3,0.6,0.2c0.1-0.1,0.3,0,0.4,0.1C17.8,19.6,17.6,19.7,17.5,19.8z"/>
	<path d="M26.4,13.3c-0.3-0.7-0.9-0.7-1.3,0c0,0.1-0.1,0.1-0.1,0.2c0,0.1-0.1,0.1-0.2,0.2c-0.7,0.1-1.3,0.2-2,0.3
		c-0.1-1.3-0.4-2.6-1-3.8c-0.1-0.2,0-0.2,0.1-0.2c0.5-0.2,1-0.4,1.5-0.6c0.2-0.1,0.4-0.1,0.7,0c0.6,0.4,1.1,0.1,1.1-0.6
		c0-0.8-0.4-1.4-1-1.8c-0.6-0.4-1.1-0.2-1.2,0.6c0,0.1,0,0.2,0,0.2c0,0.1,0,0.2-0.1,0.3c-0.5,0.4-1,0.8-1.5,1.2
		c-0.1,0.1-0.1,0.1-0.2,0c-0.7-1.1-1.7-2-2.8-2.8c0.4-0.5,0.8-1,1.2-1.5c0.1-0.1,0.2-0.2,0.4-0.2c0.3,0,0.6-0.1,0.8-0.3
		c0.2-0.3,0-0.6-0.1-0.8c-0.5-0.6-1.1-1-1.9-1c-0.5,0-0.7,0.3-0.6,0.8c0,0.2,0.1,0.3,0.2,0.4c0.1,0.1,0.1,0.3,0,0.4
		c-0.2,0.5-0.4,1.1-0.6,1.6c-0.1,0.2-0.1,0.2-0.3,0.1c-0.6-0.3-1.3-0.5-2-0.7c-0.6-0.1-1.1-0.2-1.7-0.2c0.1-0.7,0.2-1.3,0.3-1.9
		c0-0.2,0.1-0.3,0.3-0.4c0.3-0.1,0.5-0.4,0.5-0.7c0-0.4-0.3-0.5-0.5-0.7c-0.7-0.3-1.4-0.3-2,0c-0.6,0.3-0.7,0.9-0.1,1.3
		c0.1,0.1,0.2,0.1,0.2,0.1c0.1,0,0.1,0.1,0.1,0.2c0.1,0.7,0.2,1.4,0.3,2.1c-1.3,0.1-2.6,0.4-3.8,1C9.3,6.1,9.2,6.1,9.2,6
		C9,5.4,8.8,4.9,8.6,4.4C8.5,4.2,8.5,4,8.6,3.8C9,3.1,8.7,2.6,8,2.7c-0.8,0-1.3,0.4-1.8,1C6,3.9,5.9,4.2,6.1,4.5
		c0.2,0.3,0.5,0.3,0.8,0.4c0,0,0.1,0,0.1,0c0.1,0,0.2,0,0.2,0.1C7.7,5.4,8.1,6,8.6,6.5C7.4,7.3,6.5,8.2,5.7,9.4
		C5.2,9,4.7,8.5,4.2,8.1C4.1,8,4,7.9,4,7.7c0-0.3,0-0.7-0.4-0.8C3.4,6.7,3.1,6.9,2.8,7c-0.6,0.5-1,1.1-1,1.9c0,0.6,0.3,0.8,0.9,0.7
		c0.1,0,0.3-0.1,0.3-0.2c0.1-0.1,0.2-0.1,0.4-0.1C4,9.6,4.6,9.8,5.2,10c0.1,0.1,0.2,0.1,0.1,0.2C5.1,10.5,5,10.7,4.9,11
		C4.5,12,4.3,13,4.3,14c-0.6-0.1-1.3-0.2-1.9-0.3c-0.2,0-0.3-0.1-0.4-0.3c-0.1-0.3-0.4-0.5-0.7-0.5c-0.3,0-0.5,0.3-0.6,0.5
		c-0.3,0.7-0.3,1.3,0,2c0.1,0.2,0.3,0.5,0.6,0.5c0.3,0,0.5-0.2,0.7-0.4C2,15.4,2,15.3,2,15.2c0-0.1,0.1-0.1,0.2-0.2
		c0.7-0.1,1.4-0.2,2-0.3c0,0.6,0.1,1.3,0.3,1.9c0.2,0.6,0.4,1.3,0.7,1.9c0.1,0.2,0,0.2-0.1,0.2c-0.5,0.2-1,0.4-1.5,0.6
		c-0.2,0.1-0.4,0.1-0.7,0c-0.6-0.4-1.1-0.1-1.1,0.6c0,0.8,0.4,1.4,1,1.8c0.3,0.2,0.6,0.3,0.8,0.1C4,21.6,4,21.3,4,20.9
		c0,0,0-0.1,0-0.1c0-0.1,0-0.1,0.1-0.2c0.5-0.4,1.1-0.9,1.6-1.3c0.8,1.2,1.7,2.1,2.9,2.9c-0.4,0.5-0.8,1-1.3,1.5
		c-0.1,0.1-0.2,0.2-0.4,0.2c-0.3,0-0.6,0-0.8,0.3C5.9,24.5,6,24.8,6.2,25c0.5,0.6,1.1,1,1.9,1c0.6,0,0.8-0.3,0.7-0.9
		c0-0.1-0.1-0.3-0.2-0.3c-0.1-0.1-0.1-0.2,0-0.4c0.2-0.6,0.4-1.1,0.6-1.7c0.1-0.2,0.1-0.2,0.2-0.1c0.4,0.2,0.9,0.4,1.4,0.6
		c0.8,0.3,1.6,0.4,2.4,0.4c-0.1,0.7-0.2,1.3-0.3,1.9c0,0.2-0.1,0.3-0.3,0.4C12.3,26,12,26.3,12,26.6c0,0.4,0.3,0.5,0.5,0.7
		c0.7,0.3,1.4,0.3,2,0c0.6-0.3,0.6-0.8,0.1-1.2c-0.1-0.1-0.2-0.1-0.2-0.1c-0.1,0-0.2-0.1-0.2-0.2c-0.1-0.7-0.2-1.3-0.3-2
		c1.3-0.1,2.6-0.4,3.8-1c0.1-0.1,0.2,0,0.2,0.1c0.2,0.5,0.4,1,0.6,1.6c0.1,0.2,0.1,0.4,0,0.6c-0.4,0.6-0.1,1.1,0.6,1.1
		c0.8,0,1.4-0.4,1.8-1c0.2-0.2,0.3-0.5,0.1-0.8c-0.2-0.3-0.5-0.3-0.8-0.4c-0.1,0-0.1,0-0.2,0c-0.1,0-0.1,0-0.2-0.1
		c-0.4-0.5-0.9-1.1-1.3-1.6c1.2-0.7,2.1-1.7,2.9-2.9c0.5,0.4,1,0.9,1.5,1.3c0.1,0.1,0.2,0.2,0.2,0.4c0,0.3,0,0.7,0.3,0.8
		c0.3,0.2,0.6,0,0.8-0.1c0.6-0.4,0.9-1,1-1.8c0-0.7-0.5-1-1.1-0.7c0,0-0.1,0-0.1,0.1c-0.1,0.1-0.2,0.1-0.3,0.1
		c-0.6-0.2-1.2-0.4-1.7-0.7c-0.1,0-0.2,0-0.1-0.2c0.6-1.2,0.9-2.5,1-3.8c0.7,0.1,1.3,0.2,1.9,0.3c0.2,0,0.3,0.1,0.3,0.3
		c0.1,0.3,0.4,0.5,0.7,0.5c0.4,0,0.5-0.3,0.7-0.6C26.8,14.6,26.8,14,26.4,13.3z M23.3,8.4c0.2-0.2,0.4-0.4,0.2-0.7
		c-0.1-0.1,0-0.3,0.1-0.4c0.2-0.1,0.3,0,0.4,0.1c0.4,0.3,0.6,0.8,0.8,1.3c0,0.1,0.1,0.3-0.1,0.4c-0.1,0.1-0.3,0-0.4-0.1
		c-0.2-0.3-0.5-0.2-0.8-0.1c-0.4,0.1-0.8,0.3-1.2,0.4c0,0,0,0,0,0C22.6,9,23,8.7,23.3,8.4z M19,4.4c0.1-0.3,0.2-0.6-0.1-0.8
		c-0.1-0.1-0.2-0.3-0.1-0.4c0.1-0.1,0.2-0.1,0.3-0.1c0.5,0.1,1,0.3,1.3,0.7c0.1,0.1,0.2,0.2,0.1,0.4c-0.1,0.1-0.3,0.2-0.4,0.1
		c-0.3-0.1-0.5,0-0.7,0.3c-0.3,0.3-0.6,0.7-0.9,1c0,0,0,0,0,0C18.7,5.2,18.9,4.8,19,4.4z M8.5,5.6c-0.3-0.3-0.6-0.7-0.8-1
		C7.5,4.4,7.3,4.2,6.9,4.4c-0.1,0.1-0.3,0-0.4-0.1C6.4,4.1,6.5,4,6.6,3.9C7,3.5,7.4,3.2,7.9,3.1c0.1,0,0.3,0,0.3,0.1
		c0.1,0.2,0,0.3-0.1,0.4C7.9,3.8,8,4.1,8.1,4.3C8.2,4.8,8.4,5.2,8.5,5.6C8.5,5.6,8.5,5.6,8.5,5.6z M4.8,9.3C4.4,9.2,4,9,3.6,8.9
		C3.3,8.8,3,8.7,2.8,9C2.7,9.1,2.5,9.2,2.4,9.1C2.3,9,2.3,8.9,2.3,8.7c0.1-0.5,0.4-1,0.8-1.3c0.1-0.1,0.2-0.2,0.4-0.1
		c0.1,0.1,0.2,0.3,0.1,0.4C3.4,8.1,3.6,8.2,3.8,8.4C4.1,8.7,4.5,9,4.8,9.3C4.8,9.3,4.8,9.3,4.8,9.3z M3.4,14.4
		c-0.4,0.1-0.8,0.1-1.3,0.2c-0.3,0.1-0.6,0.1-0.6,0.5c0,0.1-0.1,0.3-0.3,0.3c-0.2,0-0.2-0.1-0.3-0.3c-0.2-0.5-0.2-1,0-1.5
		c0-0.1,0.1-0.3,0.3-0.2c0.2,0,0.3,0.1,0.3,0.3C1.6,14,1.9,14,2.2,14.1C2.6,14.2,3,14.2,3.4,14.4C3.5,14.3,3.4,14.4,3.4,14.4z
		 M3.9,20.2c-0.2,0.2-0.5,0.4-0.3,0.8c0.1,0.1,0,0.3-0.1,0.4c-0.2,0.1-0.3,0-0.4-0.1c-0.4-0.3-0.6-0.8-0.8-1.3
		c0-0.1-0.1-0.3,0.1-0.4c0.1-0.1,0.3,0,0.4,0.1C3,20,3.3,19.9,3.6,19.8c0.4-0.2,0.8-0.3,1.3-0.5c0,0,0,0,0,0
		C4.5,19.7,4.2,19.9,3.9,20.2z M8.1,24.3c-0.1,0.3-0.2,0.6,0.1,0.8c0.1,0.1,0.2,0.3,0.1,0.4c-0.1,0.1-0.2,0.1-0.4,0.1
		c-0.5-0.1-1-0.4-1.3-0.8c-0.1-0.1-0.2-0.2-0.1-0.4c0.1-0.1,0.2-0.2,0.4-0.1c0.4,0.2,0.6-0.1,0.7-0.3c0.3-0.3,0.6-0.7,0.8-1
		c0,0,0,0,0,0C8.4,23.5,8.2,23.9,8.1,24.3z M18.6,23.1c0.3,0.3,0.6,0.7,0.8,1c0.2,0.2,0.4,0.4,0.7,0.3c0.1-0.1,0.3,0,0.4,0.1
		c0.1,0.2,0,0.3-0.1,0.4c-0.3,0.4-0.8,0.6-1.3,0.7c-0.1,0-0.3,0-0.3-0.1c-0.1-0.2,0-0.3,0.1-0.4c0.3-0.2,0.2-0.5,0.1-0.7
		C18.9,23.9,18.7,23.5,18.6,23.1C18.6,23.1,18.6,23.1,18.6,23.1z M22.3,19.4c0.4,0.2,0.9,0.3,1.3,0.5c0.3,0.1,0.5,0.1,0.7-0.1
		c0.1-0.1,0.2-0.2,0.4-0.1c0.2,0.1,0.1,0.2,0.1,0.4c-0.1,0.5-0.4,1-0.8,1.3c-0.1,0.1-0.2,0.2-0.4,0.1c-0.1-0.1-0.2-0.2-0.1-0.4
		c0.1-0.4-0.1-0.6-0.3-0.7C22.9,20,22.6,19.7,22.3,19.4C22.3,19.4,22.3,19.4,22.3,19.4z M12.9,2.4c-0.2,0-0.3-0.1-0.4-0.3
		c0-0.2,0.2-0.3,0.3-0.3c0.5-0.1,1-0.1,1.5,0c0.1,0,0.3,0.1,0.3,0.3c0,0.2-0.1,0.3-0.3,0.3c-0.4,0-0.4,0.4-0.5,0.7
		c-0.1,0.4-0.1,0.8-0.2,1.2c0,0,0,0-0.1,0c-0.1-0.3-0.1-0.6-0.2-0.9c0-0.2-0.1-0.4-0.1-0.6C13.2,2.6,13.1,2.4,12.9,2.4z M14.3,26.3
		c0.1,0,0.2,0.1,0.3,0.3c0,0.1-0.1,0.2-0.2,0.2c-0.5,0.2-1,0.2-1.6,0c-0.1,0-0.3-0.1-0.2-0.3c0-0.2,0.1-0.3,0.3-0.3
		c0.4,0,0.5-0.3,0.5-0.6c0.1-0.4,0.1-0.8,0.2-1.2c0,0,0.1,0,0.1,0c0.1,0.4,0.1,0.8,0.2,1.1C13.8,26,13.9,26.3,14.3,26.3z M13.8,23.1
		c-5.2,0.1-9.1-4.2-9-8.8c-0.1-4.7,3.8-8.7,8.5-8.8c5-0.1,8.9,3.9,9,8.6C22.4,19.2,18.4,23,13.8,23.1z M26.1,15.1
		c0,0.1-0.1,0.3-0.3,0.3c-0.2,0-0.3-0.1-0.3-0.3c-0.1-0.4-0.4-0.5-0.7-0.5c-0.4-0.1-0.8-0.1-1.2-0.2c0,0,0,0,0-0.1
		c0.4-0.1,0.8-0.1,1.3-0.2c0.3-0.1,0.5-0.1,0.6-0.5c0-0.2,0.1-0.3,0.3-0.3c0.2,0,0.2,0.2,0.3,0.3C26.3,14.1,26.3,14.6,26.1,15.1z"/>
	<path d="M19.4,13.2c-0.2,0.4-0.5,0.5-0.9,0.5c-0.3,0-0.5,0.1-0.8,0.2c-0.1,0-0.3,0.1-0.4,0.2c-0.2,0.2-0.2,0.3,0,0.5
		c0.1,0.1,0.2,0.1,0.4,0.2c0.4,0.1,0.7,0.2,1.1,0.3c0.2,0,0.4,0.1,0.5,0.3c0.1,0.3,0.4,0.5,0.7,0.5c0.3,0,0.5-0.3,0.6-0.5
		c0.2-0.3,0.2-0.6,0.2-1c0-0.4-0.1-0.7-0.3-1.1C20.3,12.7,19.7,12.6,19.4,13.2z M20,13.3c0.2,0,0.2,0.2,0.3,0.3c0.2,0.5,0.2,1,0,1.5
		c0,0.1-0.1,0.3-0.3,0.3c-0.2,0-0.3-0.1-0.3-0.3c0-0.4-0.3-0.4-0.6-0.5c-0.3-0.1-0.6-0.1-0.9-0.2c0,0,0,0,0-0.1
		c0.3-0.1,0.7-0.1,1-0.2c0.2-0.1,0.4-0.2,0.5-0.4C19.7,13.5,19.8,13.3,20,13.3z"/>
</g>
</svg>
